<svg width="161" height="44" viewBox="0 0 161 44" fill="none" xmlns="http://www.w3.org/2000/svg">
<path d="M19.0329 2.01624C22.8817 5.5979 24.1529 9.29249 22.95 13.0667C21.6017 13.4283 20.2933 14.0612 19.1708 15.3654C19.1429 14.1842 19.345 12.6917 19.8521 11.0933C19.1808 12.8642 18.8433 14.4587 18.8058 15.7771C18.4429 16.1896 18.1788 16.5675 17.9204 17.1117C13.4233 11.8862 20.2183 7.84165 19.0329 2.01624ZM38.1229 13.3329C33.6013 21.7979 27.1025 23.9783 18.5588 19.8387C17.8288 20.4937 17.2692 21.3162 16.955 22.335C16.5067 22.04 16.3333 21.8737 16.3333 21.8737C17.8304 17.6542 23.0113 17.1883 26.9833 17.3208C22.5954 16.8246 19.4538 17.4229 17.5221 19.0121C22.5046 8.34165 30.5729 17.0192 38.1229 13.3329Z" fill="#7ED957"/>
<path d="M13.1533 13.6462C13.1533 13.6462 13.1917 13.7025 13.2667 13.81C13.3417 13.9183 13.4521 14.08 13.6037 14.2825C13.7512 14.4879 13.9433 14.7342 14.1754 15.0175C14.2933 15.1583 14.4171 15.3104 14.5567 15.4675C14.6258 15.5467 14.6962 15.6283 14.7696 15.7125C14.8437 15.795 14.9208 15.8796 14.9996 15.9675C15.6312 16.6667 16.4408 17.4729 17.3767 18.4062C18.3062 19.3454 19.3779 20.4071 20.3787 21.7717C20.5021 21.9433 20.625 22.1196 20.7442 22.3012C20.8596 22.4862 20.9821 22.6687 21.09 22.8654C21.3192 23.2496 21.5187 23.6662 21.7058 24.0996C21.7896 24.32 21.8846 24.5396 21.9521 24.7725C21.9879 24.8883 22.0296 25.0025 22.0592 25.1212C22.0896 25.2404 22.1196 25.3596 22.15 25.4787C22.2579 25.9608 22.3412 26.4608 22.3637 26.9708L22.375 27.1629L22.3779 27.2108L22.3792 27.235V27.365C22.3804 27.4821 22.3804 27.6 22.3812 27.7175V27.7621L22.3737 27.9108L22.3637 28.1104L22.3529 28.3108L22.3337 28.5042C22.2904 29.0204 22.1946 29.5387 22.0708 30.0558C21.9487 30.5742 21.7725 31.085 21.5633 31.5875C21.3554 32.0908 21.1008 32.5808 20.8092 33.0529C19.6525 34.9479 17.8204 36.5333 15.6262 37.3867C15.0787 37.5996 14.5125 37.77 13.9337 37.895C13.3546 38.0171 12.7633 38.0887 12.1696 38.1133L11.9467 38.1192L11.8354 38.1225L11.7792 38.1237C11.7933 38.1246 11.7292 38.1237 11.7267 38.1237L11.7012 38.1229L11.2971 38.1142C11.2346 38.1142 11.15 38.1062 11.0737 38.1012L10.84 38.085C10.7633 38.0779 10.6821 38.0754 10.6087 38.065L10.3867 38.0375C9.795 37.9629 9.20541 37.8462 8.63292 37.6708C6.34 36.9792 4.29875 35.4979 2.95792 33.565C2.61958 33.0846 2.31792 32.5804 2.06667 32.055C1.81625 31.5292 1.60833 30.9871 1.44375 30.4362C1.2825 29.8833 1.16875 29.3225 1.09458 28.7612C1.07875 28.6208 1.06292 28.4808 1.04708 28.3404C1.03875 28.1996 1.03042 28.0596 1.02208 27.9196C1.01125 27.7796 1.01458 27.6396 1.0125 27.5L1.01125 27.2912L1.01083 27.2392C1.01208 27.17 1.01208 27.2062 1.0125 27.1846L1.01875 27.0654C1.03375 26.81 1.04292 26.5633 1.06167 26.3033C1.09292 26.0292 1.12333 25.7554 1.15375 25.4833C1.19167 25.2171 1.24125 24.9629 1.28458 24.705L1.31917 24.5125L1.3625 24.3233C1.39167 24.1979 1.42083 24.0721 1.45 23.9475C1.48 23.8229 1.50708 23.6979 1.53917 23.5742C1.57375 23.4525 1.60833 23.3304 1.64292 23.2087C1.71375 22.9667 1.77583 22.7229 1.85875 22.4892C1.93792 22.2542 2.01333 22.0192 2.09417 21.7883C2.18167 21.5604 2.26792 21.3337 2.35417 21.1092C2.39625 20.9958 2.4425 20.8858 2.49 20.7762C2.53667 20.6671 2.58333 20.5579 2.63 20.4492C2.67667 20.3404 2.72292 20.2325 2.76875 20.1246C2.81833 20.0183 2.8675 19.9129 2.91625 19.8075C3.01583 19.5975 3.11042 19.3871 3.21167 19.1825C3.31542 18.9796 3.41833 18.7783 3.52 18.5787C3.62 18.3779 3.7325 18.1867 3.83667 17.9933C3.9425 17.8004 4.04542 17.6087 4.15625 17.4242C4.265 17.2383 4.3725 17.0542 4.47875 16.8721C4.5875 16.6917 4.69917 16.515 4.80833 16.34C5.6825 14.9383 6.58042 13.7267 7.40375 12.6808C8.23292 11.6383 8.99833 10.7675 9.64583 10.0692C10.2912 9.36832 10.8283 8.84666 11.1925 8.49082C11.3746 8.31332 11.5196 8.18207 11.6162 8.09291C11.7142 8.00457 11.7646 7.95874 11.7646 7.95874C11.7646 7.95874 11.7217 8.01166 11.6396 8.11416C11.5587 8.21791 11.4383 8.37166 11.2817 8.57166C10.9687 8.97166 10.5225 9.56874 9.97042 10.3358C9.42041 11.105 8.76583 12.0467 8.06 13.1512C7.71167 13.7067 7.3375 14.2946 6.97208 14.93C6.78417 15.2446 6.60375 15.5737 6.41208 15.9067C6.32083 16.0754 6.22833 16.2458 6.13458 16.4187C6.08833 16.5046 6.04125 16.5912 5.99375 16.6787C5.94875 16.7667 5.90333 16.8554 5.8575 16.9442C5.11792 18.3625 4.4 19.9387 3.83083 21.65C3.545 22.505 3.30833 23.3954 3.13583 24.3096C3.045 24.7658 2.98833 25.2325 2.93292 25.6946C2.91583 25.9192 2.89917 26.145 2.88167 26.3712C2.87333 26.6146 2.87375 26.8737 2.86958 27.1258L2.86792 27.245C2.86833 27.2396 2.86708 27.2917 2.86833 27.2383L2.87875 27.455C2.88542 27.5704 2.88625 27.6862 2.90042 27.8012C2.91167 27.9167 2.92292 28.0321 2.93417 28.1479C2.95042 28.2625 2.96708 28.3779 2.98375 28.4933C3.05833 28.9529 3.16458 29.41 3.30875 29.8579C3.4575 30.3046 3.63958 30.7417 3.85583 31.1642C4.0675 31.5887 4.32083 31.9946 4.60292 32.3808C4.88542 32.7662 5.19875 33.1312 5.54 33.47C5.885 33.805 6.25375 34.1167 6.64583 34.3975C7.4275 34.9633 8.31042 35.3875 9.23375 35.6667C9.69417 35.8117 10.1696 35.9075 10.6479 35.9708L10.8275 35.9946C10.8879 36.0033 10.9421 36.0042 10.9996 36.01L11.1696 36.0242C11.2275 36.0283 11.2775 36.0354 11.3496 36.0358L11.7542 36.0471L12.0933 36.04C12.575 36.0212 13.0546 35.9704 13.5258 35.8817C13.9962 35.7875 14.4579 35.6575 14.9054 35.4925C15.3537 35.3296 15.7846 35.1233 16.1962 34.8892C16.6092 34.6558 17.0037 34.3933 17.3721 34.1004C18.1046 33.51 18.745 32.8175 19.2558 32.0521C19.5133 31.6712 19.7417 31.2729 19.9308 30.8617C20.1196 30.45 20.2896 30.0317 20.4133 29.6029C20.5387 29.1754 20.6433 28.7442 20.7008 28.31L20.7258 28.1483L20.7417 27.9925L20.7667 27.76L20.7712 27.7212L20.7737 27.6771C20.78 27.5592 20.7867 27.4417 20.7929 27.3246L20.7979 27.2371C20.7983 27.2387 20.7987 27.2025 20.7987 27.235V27.0179C20.8075 26.5962 20.7633 26.1825 20.6996 25.7767C20.6808 25.6758 20.6617 25.575 20.6429 25.475C20.6246 25.3737 20.5946 25.2762 20.5712 25.1775C20.5267 24.9783 20.46 24.7862 20.4029 24.5925C20.1446 23.8258 19.7817 23.1092 19.3775 22.4425C18.9725 21.7754 18.5237 21.16 18.0821 20.5796C17.6404 19.9987 17.1954 19.4596 16.7808 18.9462C15.9471 17.9229 15.2212 17.0146 14.6742 16.2292C14.1208 15.4479 13.7446 14.7962 13.5021 14.3458C13.3775 14.1221 13.2975 13.9446 13.24 13.8262C13.1825 13.7075 13.1533 13.6462 13.1533 13.6462Z" fill="#5CE1E6"/>
<path d="M12.7633 17.3776C12.7633 17.3776 12.8408 17.4859 12.9867 17.6892C13.1354 17.8884 13.3571 18.1763 13.6579 18.5271C13.9584 18.8784 14.3413 19.2863 14.7934 19.7442C15.245 20.203 15.7675 20.7092 16.3296 21.2826C16.8879 21.8588 17.4908 22.5017 18.0438 23.2813C18.32 23.6701 18.5763 24.098 18.7958 24.5642C19.0158 25.0301 19.1863 25.5409 19.2913 26.0771C19.315 26.2113 19.3433 26.3463 19.3563 26.4834C19.3725 26.6205 19.3913 26.758 19.3942 26.8967L19.4038 27.1055L19.405 27.1317L19.4059 27.1446C19.4063 27.1363 19.4059 27.1717 19.4059 27.1717L19.4054 27.2192L19.4046 27.3151L19.4029 27.5063C19.4017 27.5721 19.3963 27.648 19.3921 27.7184L19.3792 27.9346L19.3563 28.1421C19.3483 28.2117 19.3421 28.2817 19.3317 28.3505L19.2983 28.5584C19.2533 28.8363 19.1854 29.1113 19.1079 29.3846C18.795 30.478 18.21 31.5092 17.4338 32.3638C16.6508 33.2113 15.6796 33.888 14.6192 34.2938L14.4208 34.3696C14.3542 34.3938 14.2867 34.4151 14.22 34.4371C14.1529 34.4584 14.0863 34.4826 14.0192 34.5017L13.8154 34.5576C13.5446 34.6301 13.27 34.6826 12.9963 34.7242C12.8596 34.7459 12.7217 34.7567 12.5859 34.7734C12.4488 34.7855 12.3121 34.7909 12.1758 34.7996C12.0396 34.8034 11.9038 34.8034 11.7688 34.8034C11.6388 34.7967 11.5092 34.7909 11.38 34.7842C11.2421 34.7709 11.1034 34.7588 10.9683 34.7434C10.8371 34.7234 10.7063 34.7055 10.5767 34.683C10.4483 34.6559 10.3196 34.633 10.1929 34.603C10.0675 34.5692 9.94168 34.5396 9.81877 34.5021C9.32668 34.3546 8.86085 34.1634 8.43293 33.9321C7.57502 33.4709 6.86668 32.8688 6.32835 32.228C6.0596 31.9063 5.82835 31.5792 5.63418 31.2534C5.44168 30.9271 5.28668 30.603 5.16002 30.2926C4.91168 29.6684 4.78668 29.098 4.7246 28.6284C4.6596 28.158 4.67002 27.7855 4.6721 27.5355C4.67752 27.4101 4.68668 27.3138 4.69043 27.2492C4.69502 27.1851 4.69752 27.1513 4.69752 27.1513C4.69752 27.1513 4.71377 27.2838 4.74418 27.5317C4.78168 27.7776 4.84418 28.1363 4.96835 28.5771C5.09418 29.0176 5.29668 29.5355 5.5971 30.0842C5.75293 30.3559 5.92668 30.6388 6.13835 30.9155C6.3496 31.1921 6.58752 31.4684 6.8596 31.7317C7.3996 32.2605 8.07335 32.7367 8.85002 33.0842C9.23877 33.2567 9.65127 33.4013 10.0838 33.4996C10.1913 33.5255 10.3013 33.543 10.4108 33.5659C10.5208 33.5863 10.6321 33.6005 10.7434 33.6184C10.8554 33.6317 10.9683 33.6413 11.0813 33.6534C11.19 33.6592 11.2996 33.6651 11.4092 33.6709C11.5288 33.6709 11.6479 33.6709 11.7679 33.6709C11.8833 33.6651 11.9992 33.6592 12.115 33.6538C12.2308 33.6417 12.3467 33.6334 12.4625 33.6184C12.5775 33.6001 12.6938 33.5876 12.8092 33.5646C13.0392 33.5209 13.2692 33.4688 13.4954 33.3992L13.6654 33.3488C13.7221 33.3313 13.7775 33.3096 13.8338 33.2909C13.8896 33.2709 13.9463 33.2521 14.0017 33.2309L14.1667 33.1634C15.0479 32.7988 15.8583 32.2296 16.5113 31.5155C16.84 31.1596 17.1254 30.7651 17.3663 30.3476C17.6046 29.9284 17.8071 29.4892 17.9471 29.0321C18.0167 28.8038 18.0779 28.573 18.1225 28.3405L18.1571 28.1663C18.1683 28.108 18.175 28.0492 18.1842 27.9905L18.21 27.8159L18.2258 27.6476C18.2308 27.5901 18.2379 27.5388 18.2413 27.4767L18.2496 27.2855L18.2558 27.1426C18.2558 27.1355 18.2558 27.1626 18.2558 27.1459L18.2554 27.1355L18.255 27.1138L18.2529 26.9426C18.2546 26.8284 18.2442 26.7151 18.2367 26.6021C18.2325 26.4888 18.2133 26.3771 18.1992 26.2659C18.0717 25.3738 17.7096 24.5426 17.2579 23.798C16.8063 23.0513 16.2821 22.3813 15.7892 21.7638C15.2938 21.1467 14.8267 20.5805 14.4304 20.0613C14.0317 19.5451 13.7088 19.0721 13.4588 18.6746C13.2042 18.2801 13.0408 17.9467 12.9246 17.7255C12.8196 17.4988 12.7633 17.3776 12.7633 17.3776Z" fill="#7ED957"/>
<path d="M57.2 28.275C57.3167 28.5083 57.375 28.7417 57.375 28.975C57.375 29.375 57.2083 29.7083 56.875 29.975C56.5417 30.2417 56.1333 30.375 55.65 30.375C55 30.375 54.4667 30.125 54.05 29.625C53.6333 29.1083 53.2917 28.45 53.025 27.65L52.05 24.575C51.85 24.025 51.625 23.575 51.375 23.225C51.125 22.8583 50.75 22.55 50.25 22.3C49.75 22.05 49.075 21.925 48.225 21.925H47.625L47.65 27C47.65 28.2333 47.7667 29.1583 48 29.775C47.6 30.125 47.1583 30.3 46.675 30.3C46.275 30.3 45.95 30.1917 45.7 29.975C45.4667 29.7417 45.35 29.4333 45.35 29.05V15.7C45.35 14.5333 45.2333 13.6 45 12.9C45.1333 12.7667 45.3083 12.65 45.525 12.55C45.7583 12.45 46.0167 12.4 46.3 12.4C46.7 12.4 47.0167 12.5083 47.25 12.725C47.4833 12.9417 47.6 13.2417 47.6 13.625L47.625 20.95L48.325 20.85C49.375 20.7 50.275 20.2917 51.025 19.625C51.7917 18.9417 52.3667 18.15 52.75 17.25C53.15 16.35 53.35 15.4833 53.35 14.65C53.35 13.8333 53.2 13.1917 52.9 12.725C53.1167 12.625 53.2917 12.55 53.425 12.5C53.575 12.45 53.7417 12.425 53.925 12.425C54.375 12.425 54.7667 12.6 55.1 12.95C55.4333 13.2833 55.6 13.8667 55.6 14.7C55.6 16 55.1833 17.25 54.35 18.45C53.5167 19.65 52.2583 20.5667 50.575 21.2C51.5417 21.3333 52.2917 21.625 52.825 22.075C53.375 22.525 53.8 23.1417 54.1 23.925L55.275 27.15C55.4917 27.6667 55.6917 28.025 55.875 28.225C56.0583 28.425 56.2667 28.5333 56.5 28.55H56.6C56.8333 28.55 57.0333 28.4583 57.2 28.275ZM61.0199 15.125C60.6033 15.125 60.2533 14.9833 59.9699 14.7C59.6866 14.4167 59.5449 14.075 59.5449 13.675C59.5449 13.2583 59.6866 12.9083 59.9699 12.625C60.2533 12.3417 60.6033 12.2 61.0199 12.2C61.4199 12.2 61.7616 12.3417 62.0449 12.625C62.3283 12.9083 62.4699 13.2583 62.4699 13.675C62.4699 14.075 62.3283 14.4167 62.0449 14.7C61.7616 14.9833 61.4199 15.125 61.0199 15.125ZM62.2449 27C62.2449 28.2333 62.3616 29.1583 62.5949 29.775C62.2449 30.125 61.8116 30.3 61.2949 30.3C60.9283 30.3 60.6199 30.1917 60.3699 29.975C60.1366 29.7417 60.0199 29.4333 60.0199 29.05L59.9949 20.225C59.9949 18.975 59.8783 18.0417 59.6449 17.425C60.0783 17.0917 60.5116 16.925 60.9449 16.925C61.3283 16.925 61.6366 17.0333 61.8699 17.25C62.1033 17.4667 62.2199 17.7667 62.2199 18.15L62.2449 27ZM69.9623 30.325C68.3956 30.325 67.2206 30.05 66.4373 29.5C65.654 28.95 65.2623 28.225 65.2623 27.325C65.2623 26.8917 65.3706 26.5333 65.5873 26.25C65.8206 25.9667 66.179 25.825 66.6623 25.825C66.7456 25.825 66.8873 25.8417 67.0873 25.875C67.0373 26.0917 67.0123 26.3 67.0123 26.5C67.0123 26.7 67.0206 26.8583 67.0373 26.975C67.0873 27.6917 67.3873 28.2667 67.9373 28.7C68.4873 29.1167 69.2373 29.325 70.1873 29.325C71.0706 29.325 71.779 29.1667 72.3123 28.85C72.8623 28.5167 73.1373 28.05 73.1373 27.45C73.1373 27.0333 73.0206 26.6833 72.7873 26.4C72.5706 26.1 72.2873 25.85 71.9373 25.65C71.604 25.45 71.129 25.2083 70.5123 24.925L69.7373 24.575C68.8206 24.1417 68.1123 23.775 67.6123 23.475C67.1123 23.1583 66.679 22.7333 66.3123 22.2C65.9456 21.6667 65.7623 21.0083 65.7623 20.225C65.7623 19.1083 66.1873 18.275 67.0373 17.725C67.904 17.175 69.004 16.9 70.3373 16.9C71.7206 16.9 72.804 17.1167 73.5873 17.55C74.3706 17.9833 74.7623 18.6 74.7623 19.4C74.7623 19.7333 74.6706 20.0167 74.4873 20.25C74.3206 20.4667 74.054 20.5917 73.6873 20.625C73.604 20.6417 73.4873 20.65 73.3373 20.65C73.1706 20.65 73.0373 20.6333 72.9373 20.6C72.954 20.5167 72.9623 20.3667 72.9623 20.15C72.9623 19.8833 72.929 19.6583 72.8623 19.475C72.7956 18.9583 72.529 18.5667 72.0623 18.3C71.6123 18.0167 71.0123 17.875 70.2623 17.875C69.5623 17.875 68.979 18.0083 68.5123 18.275C68.0623 18.5417 67.8373 18.9583 67.8373 19.525C67.8373 20.0083 67.9706 20.425 68.2373 20.775C68.5206 21.125 68.854 21.4167 69.2373 21.65C69.6206 21.8667 70.2123 22.1667 71.0123 22.55L71.4873 22.775C72.3206 23.175 72.979 23.525 73.4623 23.825C73.9623 24.125 74.3873 24.5083 74.7373 24.975C75.0873 25.4417 75.2623 26.0083 75.2623 26.675C75.2623 27.675 74.8373 28.5333 73.9873 29.25C73.154 29.9667 71.8123 30.325 69.9623 30.325ZM89.4305 28.025C89.6138 28.2917 89.7055 28.575 89.7055 28.875C89.7055 29.2583 89.5221 29.5833 89.1555 29.85C88.8055 30.1167 88.3721 30.25 87.8555 30.25C87.0888 30.25 86.5138 29.9833 86.1305 29.45C85.7471 28.9167 85.5555 28.0833 85.5555 26.95V26.55C85.0388 27.6833 84.3221 28.5917 83.4055 29.275C82.4888 29.9417 81.4638 30.275 80.3305 30.275C79.3638 30.275 78.5971 30.0167 78.0305 29.5C77.4638 28.9667 77.1805 28.2583 77.1805 27.375C77.1805 26.375 77.5638 25.5333 78.3305 24.85C79.0971 24.15 80.1055 23.625 81.3555 23.275C82.6888 22.925 84.0471 22.775 85.4305 22.825V22.2C85.4305 20.7167 85.1971 19.625 84.7305 18.925C84.2805 18.225 83.5221 17.875 82.4555 17.875C81.7721 17.875 81.1971 18.0333 80.7305 18.35C80.2638 18.6667 80.0305 19.175 80.0305 19.875C80.0305 20.2417 80.1138 20.6 80.2805 20.95C80.4638 21.2833 80.7305 21.5167 81.0805 21.65C80.7805 22 80.3388 22.175 79.7555 22.175C79.1555 22.175 78.6721 21.9583 78.3055 21.525C77.9388 21.075 77.7555 20.55 77.7555 19.95C77.7555 18.9833 78.1888 18.2417 79.0555 17.725C79.9388 17.1917 81.1388 16.925 82.6555 16.925C84.4055 16.925 85.6888 17.3583 86.5055 18.225C87.3388 19.0917 87.7555 20.4583 87.7555 22.325V27.175C87.7555 28.0583 88.0471 28.5 88.6305 28.5C88.7638 28.5 88.9055 28.4583 89.0555 28.375C89.2055 28.2917 89.3305 28.175 89.4305 28.025ZM81.3055 28.725C81.9221 28.725 82.5555 28.4917 83.2055 28.025C83.8555 27.5417 84.3971 26.9167 84.8305 26.15C85.2638 25.3667 85.4888 24.5417 85.5055 23.675C84.8888 23.6417 84.2388 23.675 83.5555 23.775C82.8721 23.8583 82.2971 24 81.8305 24.2C81.1305 24.4667 80.5888 24.825 80.2055 25.275C79.8388 25.725 79.6555 26.2583 79.6555 26.875C79.6555 27.4083 79.7888 27.85 80.0555 28.2C80.3221 28.55 80.7388 28.725 81.3055 28.725ZM103.249 28.025C103.432 28.2917 103.524 28.575 103.524 28.875C103.524 29.2583 103.34 29.5833 102.974 29.85C102.624 30.1167 102.19 30.25 101.674 30.25C100.907 30.25 100.332 29.9833 99.9488 29.45C99.5655 28.9167 99.3738 28.0833 99.3738 26.95V26.55C98.8572 27.6833 98.1405 28.5917 97.2238 29.275C96.3072 29.9417 95.2822 30.275 94.1488 30.275C93.1822 30.275 92.4155 30.0167 91.8488 29.5C91.2822 28.9667 90.9988 28.2583 90.9988 27.375C90.9988 26.375 91.3822 25.5333 92.1488 24.85C92.9155 24.15 93.9238 23.625 95.1738 23.275C96.5072 22.925 97.8655 22.775 99.2488 22.825V22.2C99.2488 20.7167 99.0155 19.625 98.5488 18.925C98.0988 18.225 97.3405 17.875 96.2738 17.875C95.5905 17.875 95.0155 18.0333 94.5488 18.35C94.0822 18.6667 93.8488 19.175 93.8488 19.875C93.8488 20.2417 93.9322 20.6 94.0988 20.95C94.2822 21.2833 94.5488 21.5167 94.8988 21.65C94.5988 22 94.1572 22.175 93.5738 22.175C92.9738 22.175 92.4905 21.9583 92.1238 21.525C91.7572 21.075 91.5738 20.55 91.5738 19.95C91.5738 18.9833 92.0072 18.2417 92.8738 17.725C93.7572 17.1917 94.9572 16.925 96.4738 16.925C98.2238 16.925 99.5072 17.3583 100.324 18.225C101.157 19.0917 101.574 20.4583 101.574 22.325V27.175C101.574 28.0583 101.865 28.5 102.449 28.5C102.582 28.5 102.724 28.4583 102.874 28.375C103.024 28.2917 103.149 28.175 103.249 28.025ZM95.1238 28.725C95.7405 28.725 96.3738 28.4917 97.0238 28.025C97.6738 27.5417 98.2155 26.9167 98.6488 26.15C99.0822 25.3667 99.3072 24.5417 99.3238 23.675C98.7072 23.6417 98.0572 23.675 97.3738 23.775C96.6905 23.8583 96.1155 24 95.6488 24.2C94.9488 24.4667 94.4072 24.825 94.0238 25.275C93.6572 25.725 93.4738 26.2583 93.4738 26.875C93.4738 27.4083 93.6072 27.85 93.8738 28.2C94.1405 28.55 94.5572 28.725 95.1238 28.725ZM116.292 27C116.326 28.2833 116.451 29.2083 116.667 29.775C116.284 30.125 115.851 30.3 115.367 30.3C114.984 30.3 114.667 30.1917 114.417 29.975C114.167 29.7417 114.042 29.4333 114.042 29.05V22.4C114.026 20.9667 113.834 19.9083 113.467 19.225C113.101 18.5417 112.476 18.2 111.592 18.2C111.026 18.2 110.484 18.4083 109.967 18.825C109.467 19.225 109.051 19.8583 108.717 20.725C108.401 21.5917 108.242 22.6833 108.242 24C108.242 26.0833 108.259 27.45 108.292 28.1C108.326 28.75 108.434 29.3167 108.617 29.8C108.484 29.9333 108.301 30.05 108.067 30.15C107.851 30.25 107.601 30.3 107.317 30.3C106.917 30.3 106.592 30.1833 106.342 29.95C106.109 29.7 105.992 29.3667 105.992 28.95V19.975C105.976 19.5083 105.909 19.1833 105.792 19C105.692 18.8 105.526 18.7 105.292 18.7C104.976 18.7 104.759 18.8167 104.642 19.05C104.442 18.7667 104.342 18.4917 104.342 18.225C104.342 17.8417 104.484 17.5333 104.767 17.3C105.051 17.0667 105.442 16.95 105.942 16.95C106.609 16.95 107.117 17.1833 107.467 17.65C107.834 18.1 108.017 18.7667 108.017 19.65V19.95C108.367 18.9833 108.909 18.2417 109.642 17.725C110.376 17.1917 111.251 16.925 112.267 16.925C114.951 16.925 116.292 18.65 116.292 22.1V27Z" fill="#7ED957"/>
<path d="M124.965 12.325C127.415 12.325 129.232 12.7417 130.415 13.575C131.615 14.3917 132.215 15.6833 132.215 17.45C132.215 19.3167 131.565 20.7333 130.265 21.7C128.982 22.65 127.074 23.125 124.54 23.125H123.89V27.1C123.89 27.5333 123.915 28.0083 123.965 28.525C124.015 29.025 124.107 29.4417 124.24 29.775C124.107 29.9083 123.924 30.025 123.69 30.125C123.457 30.2417 123.199 30.3 122.915 30.3C122.515 30.3 122.19 30.1917 121.94 29.975C121.707 29.7417 121.59 29.4333 121.59 29.05V15.7C121.59 15.3167 121.557 14.85 121.49 14.3C121.44 13.7333 121.357 13.2667 121.24 12.9C122.04 12.5167 123.282 12.325 124.965 12.325ZM124.565 22.175C126.349 22.175 127.649 21.7917 128.465 21.025C129.299 20.2417 129.715 19.1 129.715 17.6C129.715 16.1667 129.332 15.0917 128.565 14.375C127.815 13.6583 126.599 13.3 124.915 13.3C124.382 13.3 124.04 13.3167 123.89 13.35V22.175H124.565ZM140.927 16.925C141.793 16.925 142.493 17.1667 143.027 17.65C143.577 18.1167 143.852 18.7583 143.852 19.575C143.852 20.1583 143.685 20.6333 143.352 21C143.018 21.3667 142.618 21.55 142.152 21.55C141.735 21.55 141.435 21.4417 141.252 21.225C141.435 20.9417 141.56 20.6833 141.627 20.45C141.693 20.2167 141.727 19.9417 141.727 19.625C141.727 18.625 141.268 18.125 140.352 18.125C139.635 18.125 139.035 18.6083 138.552 19.575C138.085 20.5417 137.852 22.0167 137.852 24C137.852 26.05 137.868 27.4 137.902 28.05C137.935 28.6833 138.043 29.2417 138.227 29.725C138.093 29.8583 137.91 29.975 137.677 30.075C137.46 30.175 137.202 30.2333 136.902 30.25C136.535 30.25 136.227 30.1333 135.977 29.9C135.727 29.65 135.602 29.3167 135.602 28.9V19.975C135.602 19.525 135.543 19.2 135.427 19C135.327 18.8 135.152 18.7 134.902 18.7C134.585 18.7 134.368 18.8167 134.252 19.05C134.052 18.7667 133.952 18.4917 133.952 18.225C133.952 17.8417 134.093 17.5333 134.377 17.3C134.66 17.0667 135.052 16.95 135.552 16.95C136.218 16.95 136.727 17.1917 137.077 17.675C137.443 18.1417 137.618 18.8333 137.602 19.75C137.885 18.8333 138.31 18.1333 138.877 17.65C139.443 17.1667 140.127 16.925 140.927 16.925ZM151.408 30.325C149.575 30.325 148.142 29.7417 147.108 28.575C146.092 27.3917 145.583 25.75 145.583 23.65C145.583 21.5333 146.092 19.8833 147.108 18.7C148.142 17.5167 149.575 16.925 151.408 16.925C153.242 16.925 154.667 17.5167 155.683 18.7C156.7 19.8833 157.208 21.5333 157.208 23.65C157.208 25.75 156.7 27.3917 155.683 28.575C154.667 29.7417 153.242 30.325 151.408 30.325ZM151.408 29.375C152.508 29.375 153.342 28.8833 153.908 27.9C154.492 26.9167 154.783 25.5 154.783 23.65C154.783 21.7667 154.492 20.3333 153.908 19.35C153.342 18.3667 152.508 17.875 151.408 17.875C150.292 17.875 149.442 18.3667 148.858 19.35C148.292 20.3333 148.008 21.7667 148.008 23.65C148.008 25.5 148.292 26.9167 148.858 27.9C149.442 28.8833 150.292 29.375 151.408 29.375Z" fill="#5CE1E6"/>
</svg>
